<svg xmlns="http://www.w3.org/2000/svg" version="1.1" xmlns:xlink="http://www.w3.org/1999/xlink" xmlns:svgjs="http://svgjs.dev/svgjs" width="1000" height="1000" viewBox="0 0 1000 1000"><rect width="1000" height="1000" fill="#000000"></rect><g transform="matrix(0.7,0,0,0.7,150.6187655905639,146.08680161943317)"><svg viewBox="0 0 244 247" data-background-color="#8dbdff" preserveAspectRatio="xMidYMid meet" height="1012" width="1000" xmlns="http://www.w3.org/2000/svg" xmlns:xlink="http://www.w3.org/1999/xlink"><g id="tight-bounds" transform="matrix(1,0,0,1,-0.21568400585368863,-0.09999999999999432)"><svg viewBox="0 0 244.43135999999996 247.2" height="247.2" width="244.43135999999996"><g><svg></svg></g><g><svg viewBox="0 0 244.43135999999996 247.2" height="247.2" width="244.43135999999996"><g transform="matrix(1,0,0,1,0,102.6876708482792)"><svg viewBox="0 0 244.43135999999996 41.82465830344158" height="41.82465830344158" width="244.43135999999996"><g><svg viewBox="0 0 244.43135999999996 41.82465830344158" height="41.82465830344158" width="244.43135999999996"><g><svg viewBox="0 0 244.43136 41.82465830344159" height="41.82465830344158" width="244.43135999999996"><g><svg viewBox="0 0 244.43136 41.82465830344159" height="41.82465830344159" width="244.43136"><g><svg viewBox="0 0 244.43136 41.82465830344159" height="41.82465830344159" width="244.43136"><g><svg viewBox="0 0 244.43136 41.82465830344159" height="41.82465830344159" width="244.43136"><g transform="matrix(1,0,0,1,0,0)"><svg width="244.43136" viewBox="2.799999952316284 -35 206.2899932861328 35.29999923706055" height="41.82465830344159" data-palette-color="#0080ff"><path d="M34.05-35L34.05 0 30.3 0 30.3-28.7 19.05-9.2 17.75-9.25 6.5-28.65 6.5 0 2.8 0 2.8-35 7-35 18.45-15.75 30.3-35 34.05-35ZM60.25-3.25L60.25 0 41.4 0 41.4-35 60.25-35 60.25-31.75 45.15-31.75 45.15-20.65 59-20.65 59-17.3 45.15-17.3 45.15-3.25 60.25-3.25ZM78.45 0L74.75 0 74.75-31.65 64.95-31.65 64.95-35 88.15-35 88.15-31.65 78.45-31.65 78.45 0ZM103.84-35L115.44 0 111.24 0 107.74-11.05 95.19-11.05 91.74 0 87.79 0 99.29-35 103.84-35ZM96.14-14.3L106.89-14.3 101.54-31.2 96.14-14.3ZM144.74-35L144.74 0 140.99 0 140.99-16.55 124.39-16.55 124.39 0 120.64 0 120.64-35 124.39-35 124.39-19.8 140.99-19.8 140.99-35 144.74-35ZM174.86-3.03Q171.79 0.3 165.89 0.3 159.99 0.3 156.91-3.03 153.84-6.35 153.84-12.9L153.84-12.9 153.84-35 157.64-35 157.64-12.3Q157.64-7.85 159.76-5.4 161.89-2.95 165.81-2.95 169.74-2.95 171.94-5.38 174.14-7.8 174.14-12.3L174.14-12.3 174.14-35 177.94-35 177.94-12.9Q177.94-6.35 174.86-3.03ZM196.69 0L187.04 0 187.04-35 197.04-35Q202.39-35 205.04-32.68 207.69-30.35 207.69-26.05L207.69-26.05Q207.69-23.15 205.79-21.25 203.89-19.35 200.64-18.95L200.64-18.95Q204.64-18.35 206.86-16.1 209.09-13.85 209.09-10.5L209.09-10.5Q209.09-5.75 205.81-2.88 202.54 0 196.69 0L196.69 0ZM190.94-17.15L190.94-3.25 197.89-3.25Q201.19-3.25 203.19-5.25 205.19-7.25 205.19-10.25 205.19-13.25 203.06-15.2 200.94-17.15 196.84-17.15L196.84-17.15 190.94-17.15ZM197.29-31.75L197.29-31.75 190.94-31.75 190.94-20.35 196.79-20.35Q199.54-20.35 201.66-21.88 203.79-23.4 203.79-26.1L203.79-26.1Q203.79-31.55 197.29-31.75Z" opacity="1" transform="matrix(1,0,0,1,0,0)" fill="#ffffff" class="undefined-text-0" data-fill-palette-color="primary" id="text-0"></path></svg></g></svg></g></svg></g></svg></g><g></g></svg></g></svg></g></svg></g><path d="M0 96.688L0 1 244.431 1 244.431 96.688 240.66 96.688 240.66 4.772 3.772 4.772 3.772 96.688 0 96.688M0 150.512L0 246.2 244.431 246.2 244.431 150.512 240.66 150.512 240.66 242.428 3.772 242.428 3.772 150.512 0 150.512" fill="#ffffff" stroke="transparent" data-fill-palette-color="primary"></path></svg></g><defs></defs></svg><rect width="244.43135999999996" height="247.2" fill="none" stroke="none" visibility="hidden"></rect></g></svg></g></svg>